<?xml version="1.0" encoding="UTF-8"?>
<svg id="Layer_1" xmlns="http://www.w3.org/2000/svg" version="1.1" viewBox="0 0 802.72 986.55">
  <!-- Generator: Adobe Illustrator 29.3.1, SVG Export Plug-In . SVG Version: 2.1.0 Build 151)  -->
  <defs>
    <style>
      .st0 {
        fill: #124735;
      }

      .st1 {
        fill: #a79467;
      }

      .st2 {
        fill: #fff;
        font-family: Swiss721BT-Bold, 'Swiss 721 BT';
        font-size: 100.72px;
        font-weight: 700;
      }

      .st3 {
        fill: #ba9d63;
      }
    </style>
  </defs>
  <path class="st3" d="M379.79,541.57l-74.6-266.51,20,3.78-31.35-121.63,56.76,40,32.98,140.55-27.03-10.27,52.27,128.66v87.58s-29.03-6.49-29.03-2.16Z"/>
  <path class="st3" d="M277.62,244.79c0,1.62,97.09,278.62,97.09,278.62l-117.63-242.4,20.54-36.22Z"/>
  <g>
    <path class="st1" d="M437.85,541.57l74.6-266.51-20,3.78,31.35-121.63-56.76,40-32.98,140.55,27.03-10.27-52.27,128.66v87.58s29.03-6.49,29.03-2.16Z"/>
    <path class="st1" d="M540.13,244.79c0,1.62-97.09,278.62-97.09,278.62l117.63-242.4-20.54-36.22Z"/>
  </g>
  <g>
    <polygon class="st3" points="362.49 192.89 408.82 356.15 410.06 351.99 410.06 192.89 362.49 192.89"/>
    <polygon class="st3" points="410.06 192.89 410.06 351.99 457.64 192.89 410.06 192.89"/>
  </g>
  <path class="st3" d="M513.5,610.88c-8.89,0-16.51-6.37-18.05-15.13-.41-2.31-.75-4.79-1.01-7.47-2.72-28.04-35.66-14.16-42.2-36.21s5.44-31.31,5.44-31.31h-97.73s11.98,9.26,5.44,31.31c-6.53,22.05-39.47,8.17-42.2,36.21-.26,2.67-.6,5.16-1.01,7.47-1.54,8.76-9.16,15.13-18.05,15.13h0v20.69h209.35v-20.69h0Z"/>
  <path class="st3" d="M408.87,655.31c-40.07,0-78.96-7.85-115.57-23.34-17.59-7.44-34.56-16.65-50.44-27.38-15.72-10.62-30.5-22.81-43.93-36.25-13.43-13.43-25.63-28.21-36.25-43.93-10.72-15.87-19.93-32.84-27.38-50.44-15.49-36.61-23.34-75.49-23.34-115.57s7.85-78.96,23.34-115.57c7.44-17.59,16.65-34.56,27.38-50.44,10.62-15.72,22.81-30.5,36.25-43.93,13.43-13.43,28.21-25.63,43.93-36.25,15.87-10.72,32.84-19.93,50.44-27.38,36.61-15.49,75.49-23.34,115.57-23.34s78.96,7.85,115.57,23.34c17.59,7.44,34.56,16.65,50.44,27.38,15.72,10.62,30.5,22.81,43.93,36.25,13.43,13.43,25.63,28.21,36.25,43.93,10.72,15.87,19.93,32.84,27.38,50.44,15.48,36.61,23.34,75.49,23.34,115.57s-7.85,78.96-23.34,115.57c-7.44,17.59-16.65,34.56-27.38,50.44-10.62,15.72-22.81,30.5-36.25,43.93-13.43,13.43-28.21,25.63-43.93,36.25-15.87,10.72-32.84,19.93-50.44,27.38-36.61,15.49-75.49,23.34-115.57,23.34ZM408.87,87.61c-149.32,0-270.8,121.48-270.8,270.8s121.48,270.8,270.8,270.8,270.8-121.48,270.8-270.8S558.19,87.61,408.87,87.61Z"/>
  <rect class="st1" x="1608.51" y="225.84" width="291.06" height="292.6"/>
  <rect class="st3" x="1608.51" y="-75.95" width="291.06" height="292.6"/>
  <rect class="st0" x="1608.51" y="551.54" width="291.06" height="292.6"/>
  <text class="st2" transform="translate(35.59 786.65)"><tspan x="0" y="0">FUCK OFF KEN</tspan><tspan x="165.34" y="120.87">TROPHY</tspan></text>
</svg>