<?xml version="1.0" encoding="UTF-8"?>
<svg id="Layer_1" xmlns="http://www.w3.org/2000/svg" version="1.1" viewBox="0 0 802.7 986.5">
  <!-- Generator: Adobe Illustrator 29.3.1, SVG Export Plug-In . SVG Version: 2.1.0 Build 151)  -->
  <defs>
    <style>
      .st0 {
        fill: #124735;
      }

      .st1 {
        font-size: 70px;
      }

      .st1, .st2 {
        fill: #fff;
        font-family: Swiss721BT-Bold, 'Swiss 721 BT';
        font-weight: 700;
        isolation: isolate;
      }

      .st3 {
        fill: #a79467;
      }

      .st2 {
        font-size: 100.7px;
      }

      .st4 {
        fill: #ba9d63;
      }
    </style>
  </defs>
  <path class="st4" d="M379.8,541.6l-74.6-266.5,20,3.8-31.4-121.6,56.8,40,33,140.6-27-10.3,52.3,128.7v87.6s-29-6.5-29-2.2h0Z"/>
  <path class="st4" d="M277.6,244.8c0,1.6,97.1,278.6,97.1,278.6l-117.6-242.4,20.5-36.2h0Z"/>
  <g>
    <path class="st3" d="M437.9,541.6l74.6-266.5-20,3.8,31.3-121.6-56.8,40-33,140.6,27-10.3-52.3,128.7v87.6s29-6.5,29-2.2h0Z"/>
    <path class="st3" d="M540.1,244.8c0,1.6-97.1,278.6-97.1,278.6l117.6-242.4-20.5-36.2h0Z"/>
  </g>
  <g>
    <polygon class="st4" points="362.5 192.9 408.8 356.1 410.1 352 410.1 192.9 362.5 192.9"/>
    <polygon class="st4" points="410.1 192.9 410.1 352 457.6 192.9 410.1 192.9"/>
  </g>
  <path class="st4" d="M513.5,610.9c-8.9,0-16.5-6.4-18-15.1-.4-2.3-.8-4.8-1-7.5-2.7-28-35.7-14.2-42.2-36.2s5.4-31.3,5.4-31.3h-97.7s12,9.3,5.4,31.3c-6.5,22-39.5,8.2-42.2,36.2-.3,2.7-.6,5.2-1,7.5-1.5,8.8-9.2,15.1-18,15.1h0v20.7h209.4v-20.7h0Z"/>
  <path class="st4" d="M408.9,655.3c-40.1,0-79-7.8-115.6-23.3-17.6-7.4-34.6-16.7-50.4-27.4-15.7-10.6-30.5-22.8-43.9-36.2-13.4-13.4-25.6-28.2-36.2-43.9-10.7-15.9-19.9-32.8-27.4-50.4-15.5-36.6-23.3-75.5-23.3-115.6s7.8-79,23.3-115.6c7.4-17.6,16.6-34.6,27.4-50.4,10.6-15.7,22.8-30.5,36.2-43.9,13.4-13.4,28.2-25.6,43.9-36.2,15.9-10.7,32.8-19.9,50.4-27.4,36.6-15.5,75.5-23.3,115.6-23.3s79,7.9,115.6,23.3c17.6,7.4,34.6,16.7,50.4,27.4,15.7,10.6,30.5,22.8,43.9,36.2,13.4,13.4,25.6,28.2,36.2,43.9,10.7,15.9,19.9,32.8,27.4,50.4,15.5,36.6,23.3,75.5,23.3,115.6s-7.8,79-23.3,115.6c-7.4,17.6-16.7,34.6-27.4,50.4-10.6,15.7-22.8,30.5-36.2,43.9-13.4,13.4-28.2,25.6-43.9,36.2-15.9,10.7-32.8,19.9-50.4,27.4-36.6,15.5-75.5,23.3-115.6,23.3ZM408.9,87.6c-149.3,0-270.8,121.5-270.8,270.8s121.5,270.8,270.8,270.8,270.8-121.5,270.8-270.8S558.2,87.6,408.9,87.6Z"/>
  <rect class="st3" x="1608.5" y="225.8" width="291.1" height="292.6"/>
  <rect class="st4" x="1608.5" y="-75.9" width="291.1" height="292.6"/>
  <rect class="st0" x="1608.5" y="551.5" width="291.1" height="292.6"/>
  <g>
    <text class="st2" transform="translate(28.1 766.7)"><tspan x="0" y="0">FUCK OFF KEN</tspan></text>
    <text class="st1" transform="translate(94.6 887.5)"><tspan x="0" y="0">URMSTON DARTS</tspan><tspan x="29.2" y="84">CHAMPIONSHIP</tspan></text>
  </g>
</svg>